<svg viewBox="-50 -50 450 500"
     xmlns="http://www.w3.org/2000/svg" xmlns:xlink="http://www.w3.org/1999/xlink"
     width="100%" height="100%"
>
<defs>
</defs>
<path d="M 82.2020492553711 362.45001220703125 L 86.58362579345703 311.37762451171875 C 86.68793487548828 308.58990478515625 87.20706176757812 276.47259521484375 87.31137084960938 273.68487548828125 L 86.73712921142578 241.23965454101562 C 84.57566833496094 230.5057373046875 78.39146423339844 220.8858642578125 68.18452453613281 212.3800506591797 C 57.97758102416992 203.87423706054688 45.17525100708008 196.85447692871094 30.920242309570312 195.46556091308594 L 5.677402019500732 191.50588989257812 C 3.535871982574463 191.197509765625 0.000011995434761047363 191.2462921142578 0.000011995434761047363 189.08267211914062 L 0.000011995434761047363 183.96994018554688 C 0.000011995434761047363 181.2188720703125 1.8896020650863647 181.59275817871094 4.595742225646973 182.08787536621094 L 34.209251403808594 185.2441864013672 C 37.715301513671875 185.88563537597656 43.37206268310547 187.09620666503906 46.833560943603516 187.9458465576172 L 78.008544921875 195.597900390625 C 83.29061889648438 196.25685119628906 89.11331176757812 193.6980743408203 88.93089294433594 188.19935607910156 L 89.41240692138672 182.0195770263672 C 89.44049835205078 177.8615264892578 89.85181427001953 172.19943237304688 82.90381622314453 164.12901306152344 L 69.68183898925781 153.77218627929688 C 70.19916534423828 154.3584442138672 70.375732421875 154.55848693847656 69.68182373046875 153.772216796875 L 4.409942150115967 126.54541015625 C 1.9760420322418213 125.53016662597656 0.000022009015083312988 122.56487274169922 0.000022009015083312988 119.92771911621094 L 0.000022009015083312988 117.14009857177734 C 0.000022009015083312988 114.44058990478516 2.0098018646240234 113.12309265136719 4.485291957855225 114.19979095458984 L 78.49715423583984 146.39112854003906 C 80.25240325927734 147.15457153320312 83.20398712158203 148.06517028808594 85.08426666259766 148.42330932617188 L 89.63240814208984 149.2896270751953 C 91.48675537109375 149.4280242919922 91.40583801269531 147.5862579345703 91.48680877685547 147.31634521484375 C 92.19070434570312 144.9700164794922 90.53331756591797 142.6767578125 89.50743865966797 140.3758087158203 L 42.76652145385742 35.54154968261719 C 41.84121322631836 33.466190338134766 39.36375045776367 31.13056182861328 37.237510681152344 30.329059600830078 L 4.018012046813965 17.806760787963867 C 1.8004220724105835 16.9708194732666 0.000011995434761047363 14.368080139160156 0.000011995434761047363 11.998160362243652 L 0.000011995434761047363 3.6596298217773438 C 0.000011995434761047363 1.639840006828308 1.5125820636749268 0.6333600282669067 3.3756518363952637 1.413469910621643 L 30.181482315063477 12.637619972229004 C 33.63744354248047 14.084700584411621 35.95450210571289 12.257230758666992 35.35249328613281 8.559210777282715 L 34.09080123901367 0.8088400363922119 C 33.39445114135742 -3.468709945678711 36.33180236816406 -6.607940196990967 40.646141052246094 -6.197050094604492 C 42.315879821777344 -6.03803014755249 44.23500061035156 -4.669219970703125 44.929073333740234 -3.142270088195801 L 52.923763275146484 14.446040153503418 C 53.516422271728516 15.74989128112793 55.030601501464844 16.27465057373047 56.3029899597168 15.61713981628418 L 81.2733154296875 2.713709831237793 C 84.17166900634766 1.2159899473190308 89.17345428466797 0.00002002716064453125 92.4359130859375 0.00002002716064453125 C 94.87257385253906 0.00002002716064453125 95.22274780273438 1.1237798929214478 93.21739196777344 2.5079398155212402 L 64.25200653076172 22.50078010559082 C 63.43669128417969 23.06352996826172 63.06511306762695 24.270469665527344 63.422733306884766 25.1943302154541 L 103.74067687988281 129.34898376464844 C 105.0672836303711 132.77606201171875 108.83738708496094 143.38755798339844 112.13786315917969 140.81056213378906 L 118.09200286865234 128.3924102783203 C 119.6850357055664 124.84156799316406 120.8514175415039 121.34243774414062 121.69637298583984 117.69312286376953 L 137.9037322998047 51.98762893676758 C 138.89736938476562 47.9593505859375 139.2415008544922 41.35232925415039 138.67173767089844 37.242610931396484 L 134.38043212890625 6.289639949798584 C 133.899169921875 2.818309783935547 136.35366821289062 0.000029921531677246094 139.8582000732422 0.000029921531677246094 C 141.4828643798828 0.000029921531677246094 142.9291229248047 1.3129099607467651 143.08583068847656 2.929999828338623 L 146.40733337402344 37.20610046386719 C 146.69708251953125 40.19614028930664 148.52261352539062 40.77455139160156 150.48141479492188 38.496971130371094 L 181.2369842529297 2.7359299659729004 C 182.53561401367188 1.2259498834609985 185.2068634033203 0.000029921531677246094 187.19847106933594 0.000029921531677246094 C 190.90599060058594 0.000029921531677246094 191.9231414794922 2.255849838256836 189.46847534179688 5.034389972686768 L 154.37350463867188 44.75981903076172 C 153.401123046875 45.86050033569336 152.34701538085938 47.91674041748047 152.02102661132812 49.34878158569336 L 139.2610626220703 105.40149688720703 C 138.65069580078125 108.08271026611328 139.69482421875 108.64289093017578 141.5912322998047 106.65164184570312 L 169.13331604003906 77.73245239257812 C 169.13336181640625 77.7323989868164 169.1334686279297 77.73236846923828 169.133544921875 77.73238372802734 L 169.6285400390625 77.85613250732422 C 172.7747344970703 78.6426773071289 173.73973083496094 81.3803939819336 171.7821044921875 83.9659194946289 L 154.37001037597656 106.96302795410156 C 150.8349609375 111.63197326660156 144.4808807373047 118.65776824951172 140.189453125 122.64264678955078 L 136.36671447753906 126.19233703613281 C 134.7891845703125 127.65717315673828 133.06561279296875 130.5371856689453 132.5201873779297 132.6197052001953 L 123.87377166748047 152.0561981201172 C 123.2121353149414 154.5824432373047 123.78431701660156 181.29690551757812 124.2469482421875 183.8670654296875 L 126.18281555175781 194.62200927734375 C 126.52149200439453 196.5035858154297 129.3309783935547 201.81887817382812 130.72573852539062 203.12648010253906 C 133.8903045654297 206.0932159423828 138.82923889160156 205.81533813476562 142.7090301513672 203.87545776367188 L 152.5958251953125 197.0065155029297 C 155.45413208007812 195.57737731933594 158.57513427734375 191.94912719726562 159.56101989746094 188.90931701660156 L 162.9287567138672 178.5254669189453 C 163.50363159179688 176.75289916992188 163.85067749023438 173.80567932128906 163.7032470703125 171.94805908203125 L 161.67189025878906 146.3528289794922 C 161.5156707763672 144.3845977783203 160.682861328125 141.34751892089844 159.8132781982422 139.5749053955078 L 147.96495056152344 115.42255401611328 L 143.48822021484375 104.80027770996094 C 142.0224609375 101.32231903076172 143.72328186035156 97.48267364501953 147.2839813232422 96.23126220703125 L 149.24594116210938 95.54173278808594 C 151.6734619140625 94.68858337402344 154.4402618408203 95.92733764648438 155.42066955566406 98.3062973022461 L 168.7755126953125 130.71145629882812 C 170.11285400390625 133.95648193359375 173.4040069580078 134.78660583496094 176.1204376220703 132.56407165527344 L 180.2393798828125 129.19403076171875 C 181.5186767578125 128.1473388671875 183.1645965576172 126.1008529663086 183.91259765625 124.62686157226562 L 198.3201141357422 96.23555755615234 C 199.3088836669922 94.28709411621094 200.93572998046875 91.13426971435547 201.95077514648438 89.19934844970703 L 214.46595764160156 65.34229278564453 C 215.6621856689453 63.061973571777344 218.33457946777344 59.99549102783203 220.4299774169922 58.498779296875 C 222.32395935058594 57.145931243896484 223.0918731689453 57.77334976196289 222.14373779296875 59.899009704589844 L 191.8507843017578 127.8138656616211 L 177.1532745361328 161.0017852783203 C 176.43141174316406 162.6317901611328 175.92564392089844 165.40025329589844 176.02452087402344 167.18020629882812 L 176.06471252441406 167.90330505371094 C 176.2285919189453 170.8534698486328 177.78025817871094 175.18307495117188 179.52757263183594 177.56576538085938 L 182.04100036621094 180.9931640625 C 182.04100036621094 180.99317932128906 182.04103088378906 180.99319458007812 182.04104614257812 180.9932098388672 L 186.25778198242188 182.19798278808594 C 187.9198760986328 182.67286682128906 190.4625244140625 182.31971740722656 191.9322967529297 181.4098663330078 L 192.3866729736328 181.1285858154297 C 196.65020751953125 178.4892578125 204.08145141601562 177.24867248535156 208.97113037109375 178.35997009277344 L 218.36392211914062 180.49468994140625 C 220.8282928466797 181.05477905273438 224.7520294189453 180.7939453125 227.12059020996094 179.91262817382812 L 240.8225860595703 174.814208984375 C 243.14479064941406 173.9501495361328 246.66497802734375 172.0764617919922 248.67864990234375 170.63270568847656 L 264.97076416015625 158.9515380859375 C 269.06787109375 156.01397705078125 276.4819641113281 153.42208862304688 281.51690673828125 153.1671600341797 L 314.1846923828125 152.17190551757812 C 316.36871337890625 152.06134033203125 316.8909912109375 153.75473022460938 316.8910827636719 155.94149780273438 C 316.89117431640625 158.1646728515625 317.95428466796875 158.1646270751953 314.0880126953125 159.42112731933594 L 295.3416748046875 161.27862548828125 C 286.3810729980469 160.4761962890625 273.7088317871094 164.74581909179688 267.06085205078125 170.80723571777344 L 266.666748046875 171.1665496826172 C 263.84375 173.74046325683594 259.0904846191406 177.71722412109375 256.0587158203125 180.0415802001953 L 248.98696899414062 185.46322631835938 C 247.373046875 186.70057678222656 244.55709838867188 188.38265991210938 242.7025604248047 189.2172088623047 L 231.88540649414062 194.08493041992188 C 228.31185913085938 195.6930389404297 222.38487243652344 196.0152587890625 218.65805053710938 194.8040313720703 C 210.9866180419922 192.31082153320312 198.94155883789062 193.2953643798828 191.77684020996094 197.0012664794922 C 190.67784118652344 197.56971740722656 188.84841918945312 198.39292907714844 187.69412231445312 198.8384552001953 L 169.40541076660156 205.89727783203125 C 169.40533447265625 205.8972930908203 169.40524291992188 205.89736938476562 169.40518188476562 205.8974151611328 L 159.43975830078125 216.3927001953125 C 158.27903747558594 217.61512756347656 156.64093017578125 219.78611755371094 155.78396606445312 221.2377166748047 L 155.7785186767578 221.2469482421875 C 150.89434814453125 229.52015686035156 145.4235076904297 243.8902130126953 143.56907653808594 253.31687927246094 L 141.90122985839844 261.7951354980469 C 139.18348693847656 275.61029052734375 136.82290649414062 298.25653076171875 136.63307189941406 312.3351745605469 L 136.32640075683594 335.07769775390625 C 136.20806884765625 343.8534851074219 138.19888305664062 357.7913513183594 140.76931762695312 366.1831359863281 L 149.81832885742188 395.72552490234375 C 151.17884826660156 400.1672058105469 155.71820068359375 405.3309020996094 159.94888305664062 407.2494812011719 L 191.3505096435547 421.48974609375 C 192.36441040039062 421.9495544433594 194.090087890625 422.3720397949219 195.20172119140625 422.43267822265625 L 201.11598205566406 422.7552795410156 C 211.17808532714844 423.3041076660156 211.2396240234375 424.8453369140625 201.2533416748047 426.1947937011719 L 190.08229064941406 427.70440673828125 C 186.80850219726562 428.1468200683594 181.5443115234375 427.8730163574219 178.33409118652344 427.0934143066406 L 151.2643585205078 420.51934814453125 C 151.0392608642578 420.46466064453125 150.6781005859375 420.4797668457031 150.4583282470703 420.5530090332031 C 146.740478515625 421.79229736328125 145.84361267089844 425.1695556640625 148.4567413330078 428.0901184082031 L 151.14073181152344 431.0898742675781 C 155.9715118408203 436.4889831542969 154.2985382080078 439.05780029296875 147.4071502685547 436.82275390625 C 144.5857696533203 435.90771484375 139.88710021972656 435.1648254394531 136.92105102539062 435.1648254394531 L 130.477294921875 435.1648254394531 C 127.54949188232422 435.1648254394531 124.10946655273438 433.03875732421875 122.80011749267578 430.4200744628906 L 121.72972869873047 428.279296875 C 120.21724700927734 425.25433349609375 116.2591552734375 423.0909423828125 112.89639282226562 423.4512634277344 L 108.73310852050781 423.8973388671875 C 107.04345703125 424.078369140625 104.33549499511719 424.5689392089844 102.68970489501953 424.9921569824219 L 78.86349487304688 431.1188659667969 C 75.2838134765625 432.03936767578125 66.67284393310547 432.9722900390625 62.99774169921875 432.57855224609375 C 59.32263946533203 432.1847839355469 58.100868225097656 431.3889465332031 61.139801025390625 429.2850646972656 C 61.513458251953125 429.0263671875 65.59993743896484 426.9852294921875 66.03944396972656 426.86956787109375 L 87.74486541748047 421.1576232910156 C 90.28872680664062 420.4881896972656 91.3989486694336 418.0345458984375 90.22257232666016 415.6817932128906 C 89.82390594482422 414.88446044921875 88.77848815917969 414.29058837890625 87.88946533203125 414.3564453125 L 82.12860870361328 414.7831726074219 C 79.10942840576172 415.0068054199219 74.39906311035156 416.1566162109375 71.61640167236328 417.34918212890625 L 67.64324188232422 419.0519714355469 C 63.430992126464844 420.8572082519531 56.2935905456543 422.47357177734375 51.714561462402344 422.6591796875 L 34.66792297363281 423.3502502441406 C 29.229711532592773 423.57073974609375 20.46708106994629 424.5401916503906 15.112191200256348 425.5137939453125 C 11.804341316223145 426.115234375 6.477541923522949 425.9147033691406 3.2242720127105713 425.0662536621094 C 1.4447519779205322 424.6021728515625 1.1288520097732544 423.2481384277344 2.519251823425293 422.0444641113281 L 7.691892147064209 417.5665283203125 L 25.18537139892578 412.5683898925781 C 28.393321990966797 411.65185546875 33.63832092285156 411.51129150390625 36.89076232910156 412.25469970703125 L 40.42100143432617 413.0616149902344 C 44.40793228149414 413.972900390625 50.44287109375 412.92510986328125 53.88930130004883 410.7232360839844 L 57.940940856933594 408.13470458984375 C 61.708621978759766 405.7275695800781 66.2937240600586 400.4798583984375 68.17359924316406 396.42327880859375 L 69.62301635742188 393.2955627441406 C 71.93082427978516 388.3155517578125 75.40486907958984 380.1135559082031 77.37610626220703 374.9909973144531 L 82.20206451416016 362.4500427246094 " stroke-width="1" stroke="#000000" fill-opacity="0.5266666666666666" fill="#FFFFFF" class="" transform="matrix(1 0 0 1 -0.206982 1.11422)"/>
</svg>
